<svg width="200" height="200" viewBox="0 0 200 200" fill="none" xmlns="http://www.w3.org/2000/svg">
<circle cx="100" cy="100" r="100" fill="url(#paint0_linear_415_4)"/>
<g filter="url(#filter0_d_415_4)">
<path d="M129.639 77.8141L140.703 73.3331L131.592 89.3368H121.829M129.639 77.8141H127.036L113.368 67.5717H105.558L100.352 73.3331L94.4941 67.5717H86.6841L73.6675 77.8141H71.0641M129.639 77.8141V70.7725M121.829 89.3368L100.352 100.219L78.8741 89.3368M121.829 89.3368L108.162 78.4542M78.8741 89.3368H69.1116L60 73.3331L71.0641 77.8141M78.8741 89.3368L93.1924 78.4542M71.0641 77.8141V70.7725M93.1924 78.4542H108.162M93.1924 78.4542L100.352 87.4163L108.162 78.4542M71.0641 52.8483H63.2542V66.9316L71.0641 70.7725M71.0641 52.8483V70.7725M71.0641 52.8483V45.8067M129.639 52.8483H137.449V66.9316L129.639 70.7725M129.639 52.8483V70.7725M129.639 52.8483V38.765M129.639 38.765V29.803L100.352 17L80.1758 25.8198M129.639 38.765H94.4941L80.1758 25.8198M80.1758 25.8198L71.0641 29.803V37.8048V38.765M71.0641 45.8067L80.1758 43.8862M71.0641 45.8067V38.765M71.0641 38.765L80.1758 36.5245M89.2874 56.0491V61.1702M111.416 56.0491V61.1702" stroke="#FF6B00" stroke-width="3" shape-rendering="crispEdges"/>
</g>
<g filter="url(#filter1_d_415_4)">
<path d="M49.6797 125.047L51.7773 122.516C53.5 124.121 55.082 124.707 56.5586 124.754C58.457 124.812 59.8984 123.863 59.8984 122.762C59.8984 121.742 59.0547 121.109 57.9062 120.875C57.2383 120.734 56.5117 120.688 55.7734 120.688H53.3359V117.57H55.7734C56.3945 117.57 57.0391 117.535 57.5898 117.418C58.4453 117.242 59.043 116.785 59.043 116.059C59.043 115.086 57.7891 114.406 56.1484 114.406C54.9648 114.406 53.6641 114.781 52.3281 115.812L50.4414 113.27C52.5039 111.805 54.5547 111.195 56.3594 111.195C59.9102 111.195 62.5234 113.445 62.5234 116.07C62.5234 117.312 61.8672 118.215 60.7656 118.824C62.3945 119.691 63.4023 121.074 63.4023 122.75C63.4023 125.48 60.5781 127.988 56.8867 128.012C54.6719 128.023 52.1289 127.18 49.6797 125.047ZM77.0664 128L76.0117 125.199H68.5938L67.5625 128H63.918L70.5859 111.207H74.0547L80.7109 128H77.0664ZM72.3203 115.297L69.8008 122.023H74.8047L72.3203 115.297ZM82.3047 111.195H96.8711V128H93.3555V114.441H85.8203V128H82.3047V111.195ZM115.234 128H111.73V117.359L101.98 128H100.047V111.195H103.551V121.824L113.312 111.195H115.234V128ZM134.266 116.961L130.949 118.039C130.246 115.754 128.512 114.383 126.145 114.383C123.203 114.383 121.188 116.656 121.188 119.598C121.188 122.398 123.156 124.789 126.145 124.789C128.5 124.789 130.234 123.441 130.961 121.074L134.301 122.105C133.293 125.633 129.988 128 126.145 128C121.469 128 117.578 124.402 117.578 119.598C117.578 114.887 121.293 111.184 126.145 111.184C129.859 111.184 133.141 113.223 134.266 116.961ZM146.629 122.844C146.629 121.977 146.09 121.391 145.41 121.098C145.117 120.969 144.789 120.922 144.109 120.922H139.949V124.789H144.098C144.801 124.789 145.129 124.719 145.41 124.59C146.113 124.297 146.629 123.688 146.629 122.844ZM150.086 122.844C150.086 124.801 149.195 126.324 147.824 127.203C147.004 127.719 145.996 128 144.555 128H136.445V111.207H139.949V117.711H144.555C145.996 117.711 146.992 117.992 147.801 118.52C149.195 119.398 150.086 120.957 150.086 122.844Z" fill="#FF6B00"/>
<path d="M64.0938 146.598C64.0938 151.32 60.4609 155 55.5273 155C50.6055 155 46.9727 151.32 46.9727 146.598C46.9727 141.887 50.6055 138.195 55.5273 138.195C60.4609 138.195 64.0938 141.887 64.0938 146.598ZM60.4961 146.598C60.4961 143.703 58.5508 141.418 55.5273 141.418C52.5156 141.418 50.5703 143.703 50.5703 146.598C50.5703 149.504 52.5156 151.766 55.5273 151.766C58.5508 151.766 60.4961 149.504 60.4961 146.598ZM77.4883 138.195H81.0039V155H77.4883V147.418H69.9531V155H66.4492V138.195H69.9531V144.172H77.4883V138.195ZM87.1328 138.195H99.3203V155H95.8164V141.43H90.6367V147.688C90.6367 149.68 90.3438 151.203 89.4883 152.492C88.457 154.039 86.9102 155 85.0234 155C84.0742 155 83.1719 154.766 82.3516 154.309L84.0391 151.227C84.332 151.402 84.6602 151.484 85.0234 151.484C85.7031 151.484 86.1953 151.156 86.5586 150.605C87.0273 149.902 87.1328 148.941 87.1328 147.359V138.195ZM114.062 155L113.008 152.199H105.59L104.559 155H100.914L107.582 138.207H111.051L117.707 155H114.062ZM109.316 142.297L106.797 149.023H111.801L109.316 142.297ZM131.02 135.324L127.27 139.309L124.949 137.117L128.688 133.133L131.02 135.324ZM134.488 155H130.984V144.359L121.234 155H119.301V138.195H122.805V148.824L132.566 138.195H134.488V155ZM148.691 138.195H152.207V155H148.691V147.418H141.156V155H137.652V138.195H141.156V144.172H148.691V138.195Z" fill="white"/>
</g>
<defs>
<filter id="filter0_d_415_4" x="52.5591" y="15.363" width="95.585" height="94.5378" filterUnits="userSpaceOnUse" color-interpolation-filters="sRGB">
<feFlood flood-opacity="0" result="BackgroundImageFix"/>
<feColorMatrix in="SourceAlpha" type="matrix" values="0 0 0 0 0 0 0 0 0 0 0 0 0 0 0 0 0 0 127 0" result="hardAlpha"/>
<feOffset dy="4"/>
<feGaussianBlur stdDeviation="2"/>
<feComposite in2="hardAlpha" operator="out"/>
<feColorMatrix type="matrix" values="0 0 0 0 0 0 0 0 0 0 0 0 0 0 0 0 0 0 0.25 0"/>
<feBlend mode="normal" in2="BackgroundImageFix" result="effect1_dropShadow_415_4"/>
<feBlend mode="normal" in="SourceGraphic" in2="effect1_dropShadow_415_4" result="shape"/>
</filter>
<filter id="filter1_d_415_4" x="42.9727" y="111.184" width="113.234" height="51.8164" filterUnits="userSpaceOnUse" color-interpolation-filters="sRGB">
<feFlood flood-opacity="0" result="BackgroundImageFix"/>
<feColorMatrix in="SourceAlpha" type="matrix" values="0 0 0 0 0 0 0 0 0 0 0 0 0 0 0 0 0 0 127 0" result="hardAlpha"/>
<feOffset dy="4"/>
<feGaussianBlur stdDeviation="2"/>
<feComposite in2="hardAlpha" operator="out"/>
<feColorMatrix type="matrix" values="0 0 0 0 0 0 0 0 0 0 0 0 0 0 0 0 0 0 0.25 0"/>
<feBlend mode="normal" in2="BackgroundImageFix" result="effect1_dropShadow_415_4"/>
<feBlend mode="normal" in="SourceGraphic" in2="effect1_dropShadow_415_4" result="shape"/>
</filter>
<linearGradient id="paint0_linear_415_4" x1="0" y1="97" x2="200" y2="97" gradientUnits="userSpaceOnUse">
<stop stop-color="#FF6B00" stop-opacity="0.67"/>
<stop offset="0.0001" stop-color="#454545"/>
<stop offset="1" stop-color="#454545"/>
</linearGradient>
</defs>
</svg>
