<svg width="28" height="22" viewBox="0 0 28 22" fill="none" xmlns="http://www.w3.org/2000/svg">
<path d="M24.6667 0.333496H3.33333C1.86667 0.333496 0.666668 1.5335 0.666668 3.00016V19.0002C0.666668 20.4668 1.86667 21.6668 3.33333 21.6668H24.6667C26.1333 21.6668 27.3333 20.4668 27.3333 19.0002V3.00016C27.3333 1.5335 26.1333 0.333496 24.6667 0.333496ZM24.1333 6.00016L15.4133 11.4535C14.5467 12.0002 13.4533 12.0002 12.5867 11.4535L3.86667 6.00016C3.73297 5.92511 3.61589 5.82371 3.52252 5.7021C3.42915 5.58049 3.36142 5.4412 3.32344 5.29266C3.28545 5.14411 3.278 4.98941 3.30154 4.83791C3.32508 4.6864 3.37912 4.54125 3.46038 4.41123C3.54164 4.28121 3.64843 4.16904 3.7743 4.08149C3.90017 3.99394 4.0425 3.93284 4.19266 3.90189C4.34283 3.87094 4.49771 3.87079 4.64794 3.90143C4.79817 3.93207 4.94062 3.99287 5.06667 4.08016L14 9.66683L22.9333 4.08016C23.0594 3.99287 23.2018 3.93207 23.3521 3.90143C23.5023 3.87079 23.6572 3.87094 23.8073 3.90189C23.9575 3.93284 24.0998 3.99394 24.2257 4.08149C24.3516 4.16904 24.4584 4.28121 24.5396 4.41123C24.6209 4.54125 24.6749 4.6864 24.6985 4.83791C24.722 4.98941 24.7146 5.14411 24.6766 5.29266C24.6386 5.4412 24.5709 5.58049 24.4775 5.7021C24.3841 5.82371 24.267 5.92511 24.1333 6.00016Z" fill="#FF6B00"/>
</svg>
