<svg width="32" height="32" viewBox="0 0 32 32" fill="none" xmlns="http://www.w3.org/2000/svg">
<path d="M24 21.3545C25.66 22.0598 26.6667 22.9852 26.6667 23.9998C26.6667 26.2092 21.8907 27.9998 16 27.9998C10.1093 27.9998 5.33334 26.2092 5.33334 23.9998C5.33334 22.9865 6.34001 22.0585 8.00001 21.3545" stroke="#FF6B00" stroke-width="3" stroke-linecap="round" stroke-linejoin="round"/>
<path d="M22.6667 11.2587C22.6667 15.3827 16 22.6667 16 22.6667C16 22.6667 9.33334 15.3827 9.33334 11.2587C9.33334 7.136 12.3187 4 16 4C19.6813 4 22.6667 7.136 22.6667 11.2587Z" stroke="#FF6B00" stroke-width="3" stroke-linecap="round" stroke-linejoin="round"/>
<path d="M16 14C17.6569 14 19 12.6569 19 11C19 9.34315 17.6569 8 16 8C14.3431 8 13 9.34315 13 11C13 12.6569 14.3431 14 16 14Z" stroke="#FF6B00" stroke-width="3" stroke-linecap="round" stroke-linejoin="round"/>
</svg>
