<svg width="20" height="20" viewBox="0 0 20 20" fill="none" xmlns="http://www.w3.org/2000/svg">
<g clip-path="url(#clip0_432_4)">
<path d="M19.2858 15.0001V17.8572C19.2858 18.2361 19.1353 18.5995 18.8674 18.8674C18.5995 19.1353 18.2361 19.2858 17.8572 19.2858H15.0001M15.0001 0.714355H17.8572C18.2361 0.714355 18.5995 0.864865 18.8674 1.13277C19.1353 1.40068 19.2858 1.76405 19.2858 2.14293V5.00007M0.714355 5.00007V2.14293C0.714355 1.76405 0.864865 1.40068 1.13277 1.13277C1.40068 0.864865 1.76405 0.714355 2.14293 0.714355H5.00007M5.00007 19.2858H2.14293C1.76405 19.2858 1.40068 19.1353 1.13277 18.8674C0.864865 18.5995 0.714355 18.2361 0.714355 17.8572V15.0001M10.0001 9.28578C10.7578 9.28578 11.4846 8.98476 12.0204 8.44895C12.5562 7.91313 12.8572 7.1864 12.8572 6.42864C12.8572 5.67088 12.5562 4.94415 12.0204 4.40834C11.4846 3.87252 10.7578 3.5715 10.0001 3.5715C9.24231 3.5715 8.51558 3.87252 7.97976 4.40834C7.44395 4.94415 7.14293 5.67088 7.14293 6.42864C7.14293 7.1864 7.44395 7.91313 7.97976 8.44895C8.51558 8.98476 9.24231 9.28578 10.0001 9.28578ZM15.4329 15.7144C15.0637 14.5637 14.3386 13.5599 13.3622 12.8478C12.3858 12.1357 11.2086 11.752 10.0001 11.752C8.79158 11.752 7.6143 12.1357 6.63791 12.8478C5.66153 13.5599 4.93646 14.5637 4.56721 15.7144H15.4329Z" stroke="#FF6B00" stroke-linecap="round" stroke-linejoin="round"/>
</g>
<defs>
<clipPath id="clip0_432_4">
<rect width="20" height="20" fill="white"/>
</clipPath>
</defs>
</svg>
