<svg width="24" height="23" viewBox="0 0 24 23" fill="none" xmlns="http://www.w3.org/2000/svg">
<g id="mingcute:entrance-line" clip-path="url(#clip0_43_56)">
<g id="Group">
<path id="Vector" d="M12 2.875C12.2549 2.87527 12.5 2.9688 12.6854 3.13648C12.8707 3.30416 12.9822 3.53333 12.9972 3.77717C13.0121 4.02101 12.9293 4.26111 12.7657 4.44842C12.6021 4.63573 12.3701 4.75611 12.117 4.78496L12 4.79167H7C6.75507 4.7917 6.51866 4.87787 6.33563 5.03385C6.15259 5.18983 6.03566 5.40476 6.007 5.63787L6 5.75V17.25C6.00003 17.4847 6.08996 17.7113 6.25272 17.8867C6.41547 18.0621 6.63975 18.1742 6.883 18.2016L7 18.2083H11.5C11.7549 18.2086 12 18.3021 12.1854 18.4698C12.3707 18.6375 12.4822 18.8667 12.4972 19.1105C12.5121 19.3543 12.4293 19.5944 12.2657 19.7818C12.1021 19.9691 11.8701 20.0894 11.617 20.1183L11.5 20.125H7C6.23479 20.125 5.49849 19.8449 4.94174 19.3418C4.38499 18.8387 4.04989 18.1507 4.005 17.4187L4 17.25V5.75C3.99996 5.01667 4.29233 4.31105 4.81728 3.7775C5.34224 3.24395 6.06011 2.92281 6.824 2.87979L7 2.875H12ZM14.293 8.11133C14.473 7.93946 14.7144 7.83967 14.9684 7.83224C15.2223 7.82481 15.4697 7.91029 15.6603 8.07132C15.8508 8.23235 15.9703 8.45686 15.9944 8.69925C16.0185 8.94163 15.9454 9.18372 15.79 9.37633L15.707 9.46737L14.586 10.5417H20C20.2549 10.5419 20.5 10.6355 20.6854 10.8031C20.8707 10.9708 20.9822 11.2 20.9972 11.4438C21.0121 11.6877 20.9293 11.9278 20.7657 12.1151C20.6021 12.3024 20.3701 12.4228 20.117 12.4516L20 12.4583H14.586L15.707 13.5326C15.8883 13.7047 15.994 13.9366 16.0027 14.181C16.0113 14.4253 15.9222 14.6636 15.7535 14.8471C15.5849 15.0305 15.3494 15.1452 15.0954 15.1677C14.8413 15.1903 14.5879 15.1189 14.387 14.9682L14.293 14.8887L11.464 12.1775C11.2918 12.0125 11.1884 11.793 11.1731 11.5601C11.1578 11.3272 11.2317 11.0969 11.381 10.9125L11.464 10.8225L14.293 8.11133Z" fill="#FF6B00"/>
</g>
</g>
<defs>
<clipPath id="clip0_43_56">
<rect width="24" height="23" fill="white"/>
</clipPath>
</defs>
</svg>
