<svg width="262" height="96" viewBox="0 0 262 96" fill="none" xmlns="http://www.w3.org/2000/svg">
<path d="M164.387 69.2308L177 64.2769L166.613 81.9692H155.484M164.387 69.2308H161.419L145.839 57.9077H136.935L131 64.2769L124.323 57.9077H115.419L100.581 69.2308H97.6129M164.387 69.2308V61.4462M155.484 81.9692L131 94L106.516 81.9692M155.484 81.9692L139.903 69.9385M106.516 81.9692H95.3871L85 64.2769L97.6129 69.2308M106.516 81.9692L122.839 69.9385M97.6129 69.2308V61.4462M122.839 69.9385H139.903M122.839 69.9385L131 79.8462L139.903 69.9385M97.6129 41.6308H88.7097V57.2L97.6129 61.4462M97.6129 41.6308V61.4462M97.6129 41.6308V33.8462M164.387 41.6308H173.29V57.2L164.387 61.4462M164.387 41.6308V61.4462M164.387 41.6308V26.0615M164.387 26.0615V16.1538L131 2L108 11.7504M164.387 26.0615H124.323L108 11.7504M108 11.7504L97.6129 16.1538V25V26.0615M97.6129 33.8462L108 31.7231M97.6129 33.8462V26.0615M97.6129 26.0615L108 23.5846M118.387 45.1692V50.8308M143.613 45.1692V50.8308" stroke="#FF6B00" stroke-width="3"/>
<path d="M22.1729 48.2012L18.0273 49.5488C17.1484 46.6924 14.9805 44.9785 12.0215 44.9785C8.34473 44.9785 5.8252 47.8203 5.8252 51.4971C5.8252 54.998 8.28613 57.9863 12.0215 57.9863C14.9658 57.9863 17.1338 56.3018 18.042 53.3428L22.2168 54.6318C20.957 59.041 16.8262 62 12.0215 62C6.17676 62 1.31348 57.5029 1.31348 51.4971C1.31348 45.6084 5.95703 40.9795 12.0215 40.9795C16.665 40.9795 20.7666 43.5283 22.1729 48.2012ZM24.6777 40.9941H29.0576V52.4639C29.0576 53.1377 29.1455 53.7969 29.3213 54.4268C29.8779 56.3896 31.3281 57.957 33.7598 57.957C36.2207 57.957 37.6709 56.3896 38.2129 54.4268C38.3887 53.7969 38.4766 53.1377 38.4766 52.4639V40.9941H42.8564V52.3906C42.8564 53.3135 42.7393 54.2217 42.5488 55.0713C41.5674 59.1436 38.3447 62.0146 33.7744 62.0146C29.2041 62.0146 25.9668 59.1436 24.9854 55.0713C24.7803 54.2217 24.6777 53.3135 24.6777 52.3906V40.9941ZM45.5225 40.9941H63.7305V45.0518H56.8164V62H52.4219V45.0518H45.5225V40.9941Z" fill="white"/>
<path d="M197.552 41.0088H202.093L205.667 54.9688L209.827 41.0088H213.533L217.591 54.9395L221.15 41.0088H225.706L220.096 62H215.877L211.658 48.4941L207.322 62H203.162L197.552 41.0088ZM240.823 62L239.505 58.499H230.232L228.943 62H224.388L232.723 41.0088H237.059L245.379 62H240.823ZM234.891 46.1211L231.741 54.5293H237.996L234.891 46.1211ZM254.153 62H249.773V54.0312L242.171 41.0088H247.21L251.956 49.6074L256.702 41.0088H261.741L254.153 54.0312V62Z" fill="white"/>
</svg>
