<svg width="240" height="174" viewBox="0 0 240 174" fill="none" xmlns="http://www.w3.org/2000/svg">
<g filter="url(#filter0_d_192_58)">
<path d="M157.005 77.3625L170.955 71.8832L159.467 91.4523H147.157M157.005 77.3625H153.722L136.489 64.8383H126.641L120.076 71.8832L112.69 64.8383H102.842L86.4296 77.3625H83.1471M157.005 77.3625V68.7521M147.157 91.4523L120.076 104.759L92.9948 91.4523M147.157 91.4523L129.924 78.1453M92.9948 91.4523H80.6852L69.1962 71.8832L83.1471 77.3625M92.9948 91.4523L111.049 78.1453M83.1471 77.3625V68.7521M111.049 78.1453H129.924M111.049 78.1453L120.076 89.104L129.924 78.1453M83.1471 46.8348H73.2994V64.0555L83.1471 68.7521M83.1471 46.8348V68.7521M83.1471 46.8348V38.2244M157.005 46.8348H166.852V64.0555L157.005 68.7521M157.005 46.8348V68.7521M157.005 46.8348V29.614M157.005 29.614V18.6553L120.076 3L94.636 13.7847M157.005 29.614H112.69L94.636 13.7847M94.636 13.7847L83.1471 18.6553V28.4398V29.614M83.1471 38.2244L94.636 35.8761M83.1471 38.2244V29.614M83.1471 29.614L94.636 26.8743M106.125 50.7486V57.0107M134.027 50.7486V57.0107" stroke="#FF6B00" stroke-width="4"/>
</g>
<g clip-path="url(#clip0_192_58)">
<g filter="url(#filter1_d_192_58)">
<path d="M138.816 165.94L136.772 168.641L119.144 147.768L118.38 146.864L117.616 147.768L99.9731 168.638L97.9452 165.943L97.9402 165.936L97.935 165.929C97.6262 165.533 97.4586 165.045 97.4586 164.543C97.4586 164.043 97.6246 163.557 97.9304 163.162L116.191 140.493L116.694 139.868L116.193 139.241L110.901 132.627L110.33 131.913L109.568 132.418C107.89 133.531 105.865 133.992 103.871 133.717C101.877 133.441 100.053 132.447 98.7403 130.921C97.4278 129.396 96.7174 127.443 96.7427 125.431C96.7681 123.418 97.5273 121.484 98.8778 119.992C100.228 118.5 102.077 117.552 104.077 117.326C106.077 117.101 108.091 117.614 109.739 118.768C111.388 119.922 112.559 121.639 113.031 123.595C113.504 125.551 113.246 127.613 112.306 129.393L111.998 129.976L112.413 130.488L138.83 163.162C139.135 163.558 139.301 164.043 139.301 164.543C139.301 165.045 139.134 165.533 138.825 165.929L138.825 165.929L138.816 165.94ZM99.148 125.535L99.148 125.538C99.1534 127.087 99.7712 128.571 100.867 129.667C101.962 130.762 103.446 131.38 104.995 131.385H104.999C106.156 131.385 107.287 131.042 108.249 130.399C109.211 129.757 109.961 128.843 110.404 127.774C110.847 126.705 110.962 125.528 110.737 124.393C110.511 123.259 109.954 122.216 109.135 121.398C108.317 120.58 107.275 120.022 106.14 119.797C105.005 119.571 103.829 119.687 102.76 120.13C101.691 120.572 100.777 121.322 100.134 122.284C99.4911 123.247 99.148 124.378 99.148 125.535Z" stroke="white" stroke-width="2" shape-rendering="crispEdges"/>
</g>
<g filter="url(#filter2_d_192_58)">
<path d="M128.464 132.418L127.706 131.915L127.134 132.623L124.75 135.57L123.072 133.529L125.608 130.502L126.04 129.987L125.726 129.393C124.786 127.613 124.528 125.551 125 123.595C125.473 121.639 126.644 119.922 128.292 118.768C129.941 117.614 131.955 117.101 133.955 117.326C135.955 117.552 137.804 118.5 139.154 119.992C140.505 121.484 141.264 123.418 141.289 125.431C141.314 127.443 140.604 129.396 139.291 130.921C137.979 132.447 136.154 133.441 134.161 133.717C132.167 133.992 130.141 133.531 128.464 132.418ZM127.149 125.535V126.535H127.252C127.456 127.712 128.018 128.807 128.872 129.665C129.965 130.761 131.448 131.38 132.996 131.385H132.999C134.156 131.385 135.288 131.042 136.25 130.399C137.212 129.757 137.962 128.843 138.404 127.774C138.847 126.705 138.963 125.528 138.737 124.393C138.512 123.259 137.954 122.216 137.136 121.398C136.318 120.58 135.276 120.022 134.141 119.797C133.006 119.571 131.829 119.687 130.76 120.13C129.691 120.572 128.778 121.322 128.135 122.284C127.492 123.247 127.149 124.378 127.149 125.535Z" stroke="white" stroke-width="2" shape-rendering="crispEdges"/>
</g>
</g>
<g filter="url(#filter3_d_192_58)">
<path d="M146.406 137.631L151.793 134.867L164.53 149.252L160.968 130.159L165.365 127.904L178.658 141.96L174.401 123.267L179.805 120.494L185.927 148.811L180.922 151.379L167.697 137.925L170.774 156.586L165.838 159.118L146.406 137.631Z" fill="#FF6B00"/>
</g>
<g filter="url(#filter4_d_192_58)">
<path d="M211.883 127.218L207.396 125.04L198.425 133.547L200.389 138.117L195.982 142.297L184.788 114.34L188.983 110.363L216.291 123.039L211.883 127.218ZM191.576 117.298L196.242 128.322L202.294 122.584L191.576 117.298Z" fill="#FF6B00"/>
</g>
<g filter="url(#filter5_d_192_58)">
<path d="M226.561 103.816L223.494 108.786L214.452 103.207L194.352 102.717L197.88 96.9986L210.96 97.633L204.526 86.2275L208.053 80.5095L217.518 98.2368L226.561 103.816Z" fill="#FF6B00"/>
</g>
<g filter="url(#filter6_d_192_58)">
<path d="M38.0505 110.16L33.9285 106.062C36.7821 103.281 37.4957 99.6661 35.6946 96.1559C33.4567 91.7942 28.5519 90.535 24.1902 92.773C20.037 94.9039 17.9899 99.6422 20.2635 104.073C22.0557 107.566 25.3737 109.113 29.4367 108.389L30.4486 114.126C24.4512 115.316 18.4266 112.216 15.5022 106.516C11.9446 99.5829 14.3193 91.0763 21.444 87.4207C28.4297 83.8364 36.7474 86.5276 40.4387 93.7218C43.2651 99.2304 42.7379 105.647 38.0505 110.16Z" fill="#FF6B00"/>
</g>
<g filter="url(#filter7_d_192_58)">
<path d="M47.7777 108.095L52.0448 112.082L41.6043 123.257C40.991 123.913 40.4766 124.635 40.0745 125.409C38.83 127.828 38.8162 130.675 41.1852 132.889C43.5828 135.129 46.4224 134.922 48.7372 133.503C49.4819 133.049 50.1675 132.487 50.7809 131.831L61.2214 120.656L65.4886 124.643L55.1147 135.746C54.2747 136.645 53.3338 137.423 52.3749 138.078C47.7119 141.152 41.9587 141.015 37.506 136.855C33.0533 132.695 32.5128 126.951 35.2634 122.09C35.837 121.076 36.5638 120.098 37.4038 119.199L47.7777 108.095Z" fill="#FF6B00"/>
</g>
<g filter="url(#filter8_d_192_58)">
<path d="M70.1109 126.77L91.5122 138.231L88.958 143.001L80.8314 138.648L70.1627 158.569L64.9974 155.803L75.6661 135.882L67.5566 131.539L70.1109 126.77Z" fill="#FF6B00"/>
</g>
<defs>
<filter id="filter0_d_192_58" x="60.5424" y="0.827637" width="119.067" height="114.16" filterUnits="userSpaceOnUse" color-interpolation-filters="sRGB">
<feFlood flood-opacity="0" result="BackgroundImageFix"/>
<feColorMatrix in="SourceAlpha" type="matrix" values="0 0 0 0 0 0 0 0 0 0 0 0 0 0 0 0 0 0 127 0" result="hardAlpha"/>
<feOffset dy="4"/>
<feGaussianBlur stdDeviation="2"/>
<feComposite in2="hardAlpha" operator="out"/>
<feColorMatrix type="matrix" values="0 0 0 0 0 0 0 0 0 0 0 0 0 0 0 0 0 0 0.25 0"/>
<feBlend mode="normal" in2="BackgroundImageFix" result="effect1_dropShadow_192_58"/>
<feBlend mode="normal" in="SourceGraphic" in2="effect1_dropShadow_192_58" result="shape"/>
</filter>
<filter id="filter1_d_192_58" x="91.7421" y="116.274" width="52.5591" height="61.9668" filterUnits="userSpaceOnUse" color-interpolation-filters="sRGB">
<feFlood flood-opacity="0" result="BackgroundImageFix"/>
<feColorMatrix in="SourceAlpha" type="matrix" values="0 0 0 0 0 0 0 0 0 0 0 0 0 0 0 0 0 0 127 0" result="hardAlpha"/>
<feOffset dy="4"/>
<feGaussianBlur stdDeviation="2"/>
<feComposite in2="hardAlpha" operator="out"/>
<feColorMatrix type="matrix" values="0 0 0 0 0 0 0 0 0 0 0 0 0 0 0 0 0 0 0.25 0"/>
<feBlend mode="normal" in2="BackgroundImageFix" result="effect1_dropShadow_192_58"/>
<feBlend mode="normal" in="SourceGraphic" in2="effect1_dropShadow_192_58" result="shape"/>
</filter>
<filter id="filter2_d_192_58" x="117.772" y="116.274" width="28.5178" height="28.8779" filterUnits="userSpaceOnUse" color-interpolation-filters="sRGB">
<feFlood flood-opacity="0" result="BackgroundImageFix"/>
<feColorMatrix in="SourceAlpha" type="matrix" values="0 0 0 0 0 0 0 0 0 0 0 0 0 0 0 0 0 0 127 0" result="hardAlpha"/>
<feOffset dy="4"/>
<feGaussianBlur stdDeviation="2"/>
<feComposite in2="hardAlpha" operator="out"/>
<feColorMatrix type="matrix" values="0 0 0 0 0 0 0 0 0 0 0 0 0 0 0 0 0 0 0.25 0"/>
<feBlend mode="normal" in2="BackgroundImageFix" result="effect1_dropShadow_192_58"/>
<feBlend mode="normal" in="SourceGraphic" in2="effect1_dropShadow_192_58" result="shape"/>
</filter>
<filter id="filter3_d_192_58" x="142.406" y="120.494" width="54.1761" height="50.0386" filterUnits="userSpaceOnUse" color-interpolation-filters="sRGB">
<feFlood flood-opacity="0" result="BackgroundImageFix"/>
<feColorMatrix in="SourceAlpha" type="matrix" values="0 0 0 0 0 0 0 0 0 0 0 0 0 0 0 0 0 0 127 0" result="hardAlpha"/>
<feOffset dy="4"/>
<feGaussianBlur stdDeviation="2"/>
<feComposite in2="hardAlpha" operator="out"/>
<feColorMatrix type="matrix" values="0 0 0 0 0 0 0 0 0 0 0 0 0 0 0 0 0 0 0.25 0"/>
<feBlend mode="normal" in2="BackgroundImageFix" result="effect1_dropShadow_192_58"/>
<feBlend mode="normal" in="SourceGraphic" in2="effect1_dropShadow_192_58" result="shape"/>
</filter>
<filter id="filter4_d_192_58" x="172.724" y="102.729" width="47.5674" height="47.5674" filterUnits="userSpaceOnUse" color-interpolation-filters="sRGB">
<feFlood flood-opacity="0" result="BackgroundImageFix"/>
<feColorMatrix in="SourceAlpha" type="matrix" values="0 0 0 0 0 0 0 0 0 0 0 0 0 0 0 0 0 0 127 0" result="hardAlpha"/>
<feOffset dy="4"/>
<feGaussianBlur stdDeviation="2"/>
<feComposite in2="hardAlpha" operator="out"/>
<feColorMatrix type="matrix" values="0 0 0 0 0 0 0 0 0 0 0 0 0 0 0 0 0 0 0.25 0"/>
<feBlend mode="normal" in2="BackgroundImageFix" result="effect1_dropShadow_192_58"/>
<feBlend mode="normal" in="SourceGraphic" in2="effect1_dropShadow_192_58" result="shape"/>
</filter>
<filter id="filter5_d_192_58" x="190.352" y="80.5093" width="45.5208" height="44.9033" filterUnits="userSpaceOnUse" color-interpolation-filters="sRGB">
<feFlood flood-opacity="0" result="BackgroundImageFix"/>
<feColorMatrix in="SourceAlpha" type="matrix" values="0 0 0 0 0 0 0 0 0 0 0 0 0 0 0 0 0 0 127 0" result="hardAlpha"/>
<feOffset dy="4"/>
<feGaussianBlur stdDeviation="2"/>
<feComposite in2="hardAlpha" operator="out"/>
<feColorMatrix type="matrix" values="0 0 0 0 0 0 0 0 0 0 0 0 0 0 0 0 0 0 0.25 0"/>
<feBlend mode="normal" in2="BackgroundImageFix" result="effect1_dropShadow_192_58"/>
<feBlend mode="normal" in="SourceGraphic" in2="effect1_dropShadow_192_58" result="shape"/>
</filter>
<filter id="filter6_d_192_58" x="4.98447" y="81.019" width="45.6598" height="45.5918" filterUnits="userSpaceOnUse" color-interpolation-filters="sRGB">
<feFlood flood-opacity="0" result="BackgroundImageFix"/>
<feColorMatrix in="SourceAlpha" type="matrix" values="0 0 0 0 0 0 0 0 0 0 0 0 0 0 0 0 0 0 127 0" result="hardAlpha"/>
<feOffset dy="4"/>
<feGaussianBlur stdDeviation="2"/>
<feComposite in2="hardAlpha" operator="out"/>
<feColorMatrix type="matrix" values="0 0 0 0 0 0 0 0 0 0 0 0 0 0 0 0 0 0 0.25 0"/>
<feBlend mode="normal" in2="BackgroundImageFix" result="effect1_dropShadow_192_58"/>
<feBlend mode="normal" in="SourceGraphic" in2="effect1_dropShadow_192_58" result="shape"/>
</filter>
<filter id="filter7_d_192_58" x="24.6434" y="108.095" width="44.8452" height="45.0273" filterUnits="userSpaceOnUse" color-interpolation-filters="sRGB">
<feFlood flood-opacity="0" result="BackgroundImageFix"/>
<feColorMatrix in="SourceAlpha" type="matrix" values="0 0 0 0 0 0 0 0 0 0 0 0 0 0 0 0 0 0 127 0" result="hardAlpha"/>
<feOffset dy="4"/>
<feGaussianBlur stdDeviation="2"/>
<feComposite in2="hardAlpha" operator="out"/>
<feColorMatrix type="matrix" values="0 0 0 0 0 0 0 0 0 0 0 0 0 0 0 0 0 0 0.25 0"/>
<feBlend mode="normal" in2="BackgroundImageFix" result="effect1_dropShadow_192_58"/>
<feBlend mode="normal" in="SourceGraphic" in2="effect1_dropShadow_192_58" result="shape"/>
</filter>
<filter id="filter8_d_192_58" x="52.888" y="126.77" width="42.6243" height="44.1519" filterUnits="userSpaceOnUse" color-interpolation-filters="sRGB">
<feFlood flood-opacity="0" result="BackgroundImageFix"/>
<feColorMatrix in="SourceAlpha" type="matrix" values="0 0 0 0 0 0 0 0 0 0 0 0 0 0 0 0 0 0 127 0" result="hardAlpha"/>
<feOffset dy="4"/>
<feGaussianBlur stdDeviation="2"/>
<feComposite in2="hardAlpha" operator="out"/>
<feColorMatrix type="matrix" values="0 0 0 0 0 0 0 0 0 0 0 0 0 0 0 0 0 0 0.25 0"/>
<feBlend mode="normal" in2="BackgroundImageFix" result="effect1_dropShadow_192_58"/>
<feBlend mode="normal" in="SourceGraphic" in2="effect1_dropShadow_192_58" result="shape"/>
</filter>
<clipPath id="clip0_192_58">
<rect width="61.0555" height="61.0555" fill="white" transform="matrix(0 1 -1 0 150.604 112.9)"/>
</clipPath>
</defs>
</svg>
