<svg width="339" height="96" viewBox="0 0 339 96" fill="none" xmlns="http://www.w3.org/2000/svg">
<path d="M202.387 69.1146L215 64.1607L204.613 81.853H193.484M202.387 69.1146H199.419L183.839 57.7915H174.935L169 64.1607L162.323 57.7915H153.419L138.581 69.1146H135.613M202.387 69.1146V61.3299M193.484 81.853L169 93.8838L144.516 81.853M193.484 81.853L177.903 69.8223M144.516 81.853H133.387L123 64.1607L135.613 69.1146M144.516 81.853L160.839 69.8223M135.613 69.1146V61.3299M160.839 69.8223H177.903M160.839 69.8223L169 79.7299L177.903 69.8223M135.613 41.5146H126.71V57.0838L135.613 61.3299M135.613 41.5146V61.3299M135.613 41.5146V33.7299M202.387 41.5146H211.29V57.0838L202.387 61.3299M202.387 41.5146V61.3299M202.387 41.5146V25.9453M202.387 25.9453V16.0376L169 1.88379L146 11.6342M202.387 25.9453H162.323L146 11.6342M146 11.6342L135.613 16.0376V24.8838V25.9453M135.613 33.7299L146 31.6069M135.613 33.7299V25.9453M135.613 25.9453L146 23.4684M156.387 45.053V50.7146M181.613 45.053V50.7146" stroke="#FF6B00" stroke-width="3"/>
<path d="M34.9766 46.8057L28.3438 48.9619C26.9375 44.3916 23.4688 41.6494 18.7344 41.6494C12.8516 41.6494 8.82031 46.1963 8.82031 52.0791C8.82031 57.6807 12.7578 62.4619 18.7344 62.4619C23.4453 62.4619 26.9141 59.7666 28.3672 55.0322L35.0469 57.0947C33.0312 64.1494 26.4219 68.8838 18.7344 68.8838C9.38281 68.8838 1.60156 61.6885 1.60156 52.0791C1.60156 42.6572 9.03125 35.251 18.7344 35.251C26.1641 35.251 32.7266 39.3291 34.9766 46.8057ZM38.9844 35.2744H45.9922V53.626C45.9922 54.7041 46.1328 55.7588 46.4141 56.7666C47.3047 59.9072 49.625 62.415 53.5156 62.415C57.4531 62.415 59.7734 59.9072 60.6406 56.7666C60.9219 55.7588 61.0625 54.7041 61.0625 53.626V35.2744H68.0703V53.5088C68.0703 54.9854 67.8828 56.4385 67.5781 57.7979C66.0078 64.3135 60.8516 68.9072 53.5391 68.9072C46.2266 68.9072 41.0469 64.3135 39.4766 57.7979C39.1484 56.4385 38.9844 54.9854 38.9844 53.5088V35.2744ZM72.3359 35.2744H101.469V41.7666H90.4062V68.8838H83.375V41.7666H72.3359V35.2744Z" fill="#454545"/>
<path d="M235.883 35.2979H243.148L248.867 57.6338L255.523 35.2979H261.453L267.945 57.5869L273.641 35.2979H280.93L271.953 68.8838H265.203L258.453 47.2744L251.516 68.8838H244.859L235.883 35.2979ZM305.117 68.8838L303.008 63.2822H288.172L286.109 68.8838H278.82L292.156 35.2979H299.094L312.406 68.8838H305.117ZM295.625 43.4775L290.586 56.9307H300.594L295.625 43.4775ZM326.445 68.8838H319.438V56.1338L307.273 35.2979H315.336L322.93 49.0557L330.523 35.2979H338.586L326.445 56.1338V68.8838Z" fill="#454545"/>
</svg>
